<svg id="Calque_1" data-name="Calque 1" xmlns="http://www.w3.org/2000/svg" xmlns:xlink="http://www.w3.org/1999/xlink" viewBox="0 0 32 32"><defs><style>.cls-1{fill:#1d1d1b;}.cls-2{fill:url(#Dégradé_sans_nom_2);}.cls-3{fill:url(#Dégradé_sans_nom_2-2);}</style><linearGradient id="Dégradé_sans_nom_2" x1="5.51" y1="9.46" x2="5.66" y2="19.77" gradientTransform="matrix(1, 0, 0, -1, 0, 34)" gradientUnits="userSpaceOnUse"><stop offset="0" stop-color="#f29125"/><stop offset="1" stop-color="#e5292e"/></linearGradient><linearGradient id="Dégradé_sans_nom_2-2" x1="8.25" y1="20.79" x2="8.3" y2="24.64" xlink:href="#Dégradé_sans_nom_2"/></defs><g id="Logo"><path class="cls-1" d="M19.58,18c0-1.6,0-3.39.07-4.44h-.07c-.44,1.9-1.37,5-2.27,8H15.59c-.68-2.56-1.65-6.11-2.06-8h-.06c.08,1.1.11,3,.11,4.63v3.35H11.74V12.16h3c.73,2.44,1.55,5.5,1.83,6.9h0c.23-1.23,1.26-4.51,2-6.9h2.9v9.35h-2Z"/><path class="cls-1" d="M25,18.77a1.75,1.75,0,0,0,2,1.35c1.09,0,1.54-.43,1.54-1.11s-.44-1.1-2.05-1.47c-2.54-.6-3.17-1.52-3.17-2.78,0-1.63,1.22-2.74,3.44-2.74,2.48,0,3.47,1.33,3.6,2.7h-2c-.1-.57-.41-1.2-1.62-1.2-.82,0-1.32.34-1.32,1s.4.92,1.91,1.27c2.72.64,3.32,1.65,3.32,3,0,1.71-1.29,2.88-3.77,2.88S23.18,20.47,23,18.77Z"/><g id="Flamming"><g id="Flamming_Base" data-name="Flamming Base"><path class="cls-2" d="M9.82,15.85a9.8,9.8,0,0,1-.19,1.79A3.51,3.51,0,0,0,9,15.87c-.35-.53-.78-1-1.14-1.54A6.75,6.75,0,0,1,7,12.56,2.19,2.19,0,0,0,7,13.85a2.45,2.45,0,0,1-1-1.91A8.94,8.94,0,0,1,6.51,10a2.11,2.11,0,0,0-.29-1.9,1.9,1.9,0,0,1-.65,1.17,10,10,0,0,0-1,1,2.55,2.55,0,0,0-.46,2.15A1.35,1.35,0,0,1,3.6,11a2.6,2.6,0,0,0-.21,1.82c.12.61.36,1.19.52,1.79s.17,1.17-.28,1.45a.46.46,0,0,1-.32.08c-.24-.05-.36-.32-.42-.56a9.77,9.77,0,0,0-.45-1.79A1.41,1.41,0,0,0,1,12.85a2.21,2.21,0,0,1,1.1,1.71,4.44,4.44,0,0,1-.29,2.07,4.91,4.91,0,0,0,.06,4.06A4.72,4.72,0,0,0,4.94,23,3.87,3.87,0,0,1,3.2,20.68a3.2,3.2,0,0,1,.6-2.09A16.07,16.07,0,0,0,5,16.71a4.06,4.06,0,0,0,.37-1.85,1.45,1.45,0,0,0-.45-1.12,2.4,2.4,0,0,1,1.32,1.69,4.13,4.13,0,0,1-.17,2.2,4.1,4.1,0,0,0-.43,2.2c.07.28.3.59.59.54a.61.61,0,0,0,.31-.18,2.05,2.05,0,0,0,.18-2.74A4.17,4.17,0,0,1,8.14,20a3.08,3.08,0,0,1-.9,2.68A4.81,4.81,0,0,0,9,21a7.11,7.11,0,0,0,.9-1.4A4.35,4.35,0,0,0,9.82,15.85Z"/></g><g id="Flamming_haut" data-name="Flamming haut"><path class="cls-3" d="M7.57,8.66a1.28,1.28,0,0,1,.14-.75l0,0a3.23,3.23,0,0,1,.37-.36.74.74,0,0,0,.24-.43.78.78,0,0,1,.11.7,3.19,3.19,0,0,0-.16.73.9.9,0,0,0,.35.71.79.79,0,0,1,0-.48,2.51,2.51,0,0,0,.32.66c.13.19.29.37.42.57a1.3,1.3,0,0,1,.25.65A3.72,3.72,0,0,0,9.69,10c.22.43,0,2.55-1.56,2.67a1.15,1.15,0,0,1-.26,0,1.23,1.23,0,0,1-1-.71,2.14,2.14,0,0,1,0-1.08c.29-.85.79-.87.8-1.5C7.67,9.11,7.6,9.08,7.57,8.66Z"/></g></g></g></svg>