<svg xmlns="http://www.w3.org/2000/svg" xmlns:xlink="http://www.w3.org/1999/xlink" viewBox="0 0 640 640"><defs><style>.cls-1{fill:#1d1d1b;}.cls-2,.cls-3,.cls-6{fill:none;stroke-miterlimit:10;}.cls-2{stroke:#1d1d1b;stroke-width:34px;}.cls-3{stroke:#fff;}.cls-3,.cls-6{stroke-width:4px;}.cls-4{fill:url(#linear-gradient);}.cls-5{fill:url(#linear-gradient-2);}.cls-6{stroke:#000;}</style><linearGradient id="linear-gradient" x1="124.96" y1="443.52" x2="127.65" y2="259.7" gradientUnits="userSpaceOnUse"><stop offset="0" stop-color="#f29125"/><stop offset="1" stop-color="#e5292e"/></linearGradient><linearGradient id="linear-gradient-2" x1="173.77" y1="241.43" x2="174.77" y2="172.83" xlink:href="#linear-gradient"/></defs><g id="Logo"><path class="cls-1" d="M376,364.22c0-28.46.46-60.37,1.18-79.22H376c-7.84,34-24.52,89.6-40.51,141.8H304.75C292.59,381.16,275.34,317.86,268,284.54H266.9c1.42,19.57,2.12,53.9,2.12,82.51V426.8H236.14V260h53.68c13,43.59,27.58,98.26,32.6,123.13h.27C326.77,361.18,345.1,302.73,359,260h51.73V426.8H376Z"/><path class="cls-1" d="M472.52,377.9c3.8,16.75,15.82,24.1,35.13,24.1s27.49-7.61,27.49-19.82c0-13.58-8-19.47-36.57-26.11C453.17,345.42,442,328.9,442,306.38c0-29.07,21.75-48.82,61.23-48.82,44.29,0,61.94,23.81,64.33,48.21H531.17c-1.74-10.26-7.42-21.41-28.92-21.41-14.64,0-23.48,6.05-23.48,17.89,0,11.6,7.08,16.3,34,22.56,48.51,11.42,59.15,29.47,59.15,53,0,30.46-23,51.36-67.14,51.36-42.34,0-64.64-20.85-68.64-51.26Z"/><polyline id="Toit_Maison" class="cls-2" points="254.01 250.04 254.01 183.91 415.24 95.03 528.01 147.04"/><polygon class="cls-1" points="541.5 116.16 513.7 176.81 588.33 174.04 541.5 116.16"/><polyline id="Ligne_Blanche" class="cls-3" points="254.01 250.04 254.01 184.04 415.01 95.04 595.01 177.04"/><g id="Flamming"><g id="Flamming_Base"><path class="cls-4" d="M201.88,288.51a170.14,170.14,0,0,1-3.49,31.9c-.48-11.37-5.64-22.06-12-31.49S172.38,271,166,261.54a123.29,123.29,0,0,1-15.33-31.69,38.15,38.15,0,0,0,1.67,23.06,43.56,43.56,0,0,1-17-34c-.07-11.92,4.79-23.24,7.51-34.85s2.85-25.12-5.12-34c-.69,8.16-5.87,15.25-11.67,21s-12.47,10.73-17.49,17.2a45.66,45.66,0,0,0-8.12,38.36A23.69,23.69,0,0,1,91,201.42c-5.72,9.52-6,21.44-3.87,32.34s6.42,21.26,9.35,32c2.49,9.12,3,20.92-5,25.89a8.28,8.28,0,0,1-5.72,1.32c-4.36-.8-6.48-5.72-7.53-10-2.6-10.63-3.28-21.87-7.93-31.78s-15-18.42-25.76-16.2c11.15,5.81,17.95,18.07,19.65,30.52s-1.06,25.13-5.13,37c-8.12,23.7-11.89,49.66,1,72.42,11.55,20.34,31.78,35.86,54.79,40.63-14-10.66-28.58-23.43-31.08-40.82-1.88-13.09,3.69-26.14,10.74-37.34s15.73-21.43,21.25-33.45a72.6,72.6,0,0,0,6.54-33.1c-.3-7.39-2.15-15.43-8.06-19.87,12.21,5.17,20.66,17.24,23.64,30.16s1,26.57-3.13,39.16c-4.26,12.85-10.92,26.11-7.61,39.24,1.28,5.1,5.41,10.49,10.59,9.63a11.2,11.2,0,0,0,5.48-3.13c13.33-12.2,14.79-35.17,3.11-49,13.23,11.5,23.12,27.32,25.57,44.69s-3.14,35.95-16,47.69c12.88-5.68,22.43-17.1,31-28.35,6-7.85,11.91-15.89,16.12-24.84A78,78,0,0,0,201.88,288.51Z"/></g><g id="Flamming_haut"><path class="cls-5" d="M161.79,160.33c-.22-3.15-.39-8.88,2.45-13.41.23-.36.46-.7.56-.84,2-2.69,3.21-3.12,6.5-6.39,2.15-2.14,4.07-4.77,4.33-7.8,3,3.3,2.91,8.31,1.9,12.63s-2.81,8.51-2.79,12.94a16.23,16.23,0,0,0,6.32,12.62,14.25,14.25,0,0,1-.62-8.56,46.24,46.24,0,0,0,5.7,11.77c2.36,3.5,5.2,6.66,7.56,10.16s4.28,7.48,4.46,11.7a63.78,63.78,0,0,0,1.3-11.85c4,7.73.74,45.58-27.71,47.68a18.24,18.24,0,0,1-4.61-.5c-6.07-1.27-15-4-18-12.73-2.26-6.61-1-16,.16-19.35,5.14-15.1,14.12-15.51,14.2-26.61C163.55,168.38,162.29,167.75,161.79,160.33Z"/></g></g></g><g id="Texte"><path class="cls-1" d="M83.39,580.29,58.17,514.77h2l14.14,36.39c4.1,10.61,8.56,22.34,10.24,27.08h.18c1.4-4.28,6.7-17.12,10.61-26.8l14.61-36.67h2L85.72,580.29Z"/><path class="cls-1" d="M153.28,557.12c0,15.54-8.19,24.47-20.47,24.47s-20-9.4-20-24.29c0-16,9-24.57,20.47-24.57S153.28,541.67,153.28,557.12Zm-38.53.09c0,12.29,6.14,22.71,18.06,22.71s18.52-9.77,18.52-22.71c0-12.47-6.43-22.8-18.25-22.8C121.08,534.41,114.75,545,114.75,557.21Zm19-47.55,10.51,13.95h-2.14l-9.3-12.47-9,12.47h-2L132,509.66Z"/><path class="cls-1" d="M159.51,534h8.66V518.68H170V534h11.54v1.67H170v35c0,5,1,8.75,6.79,8.75a11.35,11.35,0,0,0,3.72-.46v1.67a10.72,10.72,0,0,1-3.81.56c-6.14,0-8.56-2.7-8.56-11V535.71h-8.66Z"/><path class="cls-1" d="M189.94,549.86c0-10.15,0-12.94-.09-15.82h1.77c.18,2.32.18,7.63.18,13.4,2.33-8.1,10-14.24,17.5-14.52v1.86c-9.49.37-17.5,9.87-17.5,20.57v24.94h-1.86Z"/><path class="cls-1" d="M215.81,556.65c0,14.43,7.17,22.9,17.22,22.9,9.12,0,13.49-4.94,16.19-11h1.86c-2.79,7.26-8.09,12.66-18,12.66-14.24,0-19.17-12.75-19.17-24.2,0-14.79,8-24.1,19.36-24.1,14.33,0,18.8,12.56,18.8,21.41a18,18,0,0,1-.1,2.32ZM250.34,555c0-11.17-5.59-20.38-17.13-20.38-10.23,0-16.75,8.46-17.31,20.38Z"/><path class="cls-1" d="M284,568c1.58,7.81,6.14,11.72,15.26,11.72,9.4,0,13.87-4.84,13.87-10.7s-2.42-9.31-14.33-12.47c-11.63-3.07-14.24-6.42-14.24-12.38s4.47-11.26,14.33-11.26c9.49,0,14.61,5.58,15.36,12.56h-1.86c-.75-5.11-4.1-10.88-13.59-10.88-8.94,0-12.38,4.65-12.38,9.4,0,5.39,2.51,8.28,13.12,11,12.1,3.07,15.55,7.07,15.55,13.86,0,7.73-6.24,12.57-15.83,12.57-10.88,0-15.82-5.21-17.12-13.4Z"/><path class="cls-1" d="M326.27,556.65c0,14.43,7.17,22.9,17.22,22.9,9.12,0,13.49-4.94,16.19-11h1.86c-2.79,7.26-8.1,12.66-18,12.66-14.24,0-19.17-12.75-19.17-24.2,0-14.79,8-24.1,19.36-24.1,14.33,0,18.79,12.56,18.79,21.41a20,20,0,0,1-.09,2.32ZM360.8,555c0-11.17-5.59-20.38-17.13-20.38-10.23,0-16.75,8.46-17.31,20.38Zm-3.91-45.42-14.33,14.8h-2.14l14.14-14.8Z"/><path class="cls-1" d="M409.09,567.73c-2.79,9.77-9.12,13.68-17.59,13.68-12.09,0-19.54-9.31-19.54-24.2,0-14.61,8.19-24.29,20-24.29,10.14,0,15.63,6.89,17.12,14.05h-1.95c-1.86-7-6.33-12.37-15.36-12.37-11.91,0-17.87,10.61-17.87,22.61,0,12.84,5.87,22.52,17.69,22.52,8,0,13.12-4.28,15.63-12Z"/><path class="cls-1" d="M454.78,567.63c0,4.56.1,10.61.1,12.66H453c-.1-.65-.28-6.89-.19-11.45-2.14,7-7.35,12.38-16.57,12.38-6.51,0-16-3-16-17.4V534h1.86v30.52c0,7.63,4,14.89,14.24,14.89,9.58,0,16.47-6.51,16.47-20V534h1.95Z"/><path class="cls-1" d="M470.6,549.86c0-10.15,0-12.94-.09-15.82h1.77c.18,2.32.18,7.63.18,13.4,2.33-8.1,10.05-14.24,17.5-14.52v1.86c-9.49.37-17.5,9.87-17.5,20.57v24.94H470.6Z"/><path class="cls-1" d="M499.91,510.4h1.86v8.47h-1.86Zm0,23.64h1.86v46.25h-1.86Z"/><path class="cls-1" d="M510.71,534h8.65V518.68h1.86V534h11.54v1.67H521.22v35c0,5,1,8.75,6.8,8.75a11.38,11.38,0,0,0,3.72-.46v1.67a10.77,10.77,0,0,1-3.82.56c-6.14,0-8.56-2.7-8.56-11V535.71h-8.65Z"/><path class="cls-1" d="M539.65,556.65c0,14.43,7.16,22.9,17.21,22.9,9.12,0,13.5-4.94,16.2-11h1.86c-2.79,7.26-8.1,12.66-18,12.66-14.24,0-19.17-12.75-19.17-24.2,0-14.79,8-24.1,19.35-24.1,14.33,0,18.8,12.56,18.8,21.41a20,20,0,0,1-.09,2.32ZM574.17,555c0-11.17-5.58-20.38-17.12-20.38-10.24,0-16.75,8.46-17.31,20.38Zm-3.91-45.42-14.33,14.8h-2.14l14.15-14.8Z"/></g><g id="Cadre"><rect id="Cadre-2" data-name="Cadre" class="cls-6" x="-0.5" y="-0.5" width="640" height="640"/></g></svg>